<svg width="1000" height="667" viewBox="0 0 1000 667" fill="none" xmlns="http://www.w3.org/2000/svg">
<path d="M671.9 231.859L656.21 238.31C656.21 238.31 660.157 251.619 661.262 261.298H677.825C677.316 247.03 671.9 231.859 671.9 231.859Z" fill="#F7A17E"/>
<path d="M943.432 554.939C943.432 571.411 744.901 584.766 500 584.766C255.099 584.766 56.5669 571.411 56.5669 554.939C56.5669 538.467 255.099 525.112 500 525.112C744.901 525.112 943.432 538.467 943.432 554.939Z" fill="white"/>
<path d="M807.129 432.731C806.561 428.081 805.574 419.436 805.117 415.061L835.533 419.116L838.444 419.257C838.098 422.252 837.404 421.719 837.086 424.271C836.156 431.74 831.708 440.148 831.708 440.148C831.708 440.148 836.565 457.103 836.565 471.013C836.565 484.924 831.476 528.009 831.476 528.009L832.429 529.985L818.932 530.056L819.408 531.397C819.154 529.296 817.672 524.016 817.378 521.599C811.133 486.651 807.657 441.525 807.657 441.525C805.753 437.079 807.129 432.731 807.129 432.731Z" fill="#FEB4A3"/>
<path d="M810.922 534.573L813.821 530.973C815.727 528.602 818.839 527.644 821.79 528.378C825.95 529.413 829.569 529.226 834.635 526.825C835.607 526.83 836.394 527.62 836.393 528.593L836.382 528.982L836.342 528.988L836.986 544.82L803.422 544.938C802.253 538.897 800.165 536.297 800.165 536.297L810.922 534.573Z" fill="#F4EDED"/>
<path d="M800.164 536.297C800.164 536.297 802.252 538.897 803.421 544.938L787.096 544.997C786.224 536.912 792.923 536.297 800.164 536.297Z" fill="#151544"/>
<path d="M786.973 548.673H836.981L837.038 544.271H787.03L786.973 548.673Z" fill="#151544"/>
<path d="M794.321 264.346C785.463 270.687 777.163 278.345 771.367 287.414C765.572 296.483 761.349 305.041 754.805 313.403C755.711 315.701 756.077 317.693 758.193 319.486C760.309 321.281 761.756 323.173 764.9 322.841C777.451 308.742 797.353 290.526 811.213 274.035L794.321 264.346Z" fill="#FEB4A3"/>
<path d="M746.447 321.013C744.885 321.187 742.78 321.654 740.593 322.049C733.517 323.327 734.123 318.982 734.123 318.982L742.164 316.573L748.217 314.63C752.293 312.09 762.431 310.237 762.431 310.237L767.017 316.283L765.98 320.063C765.96 320.279 765.972 320.495 765.9 320.709L762.419 329.762V329.767L757.737 341.945C757.232 343.446 756.449 344.71 754.948 344.205L754.673 344.113C753.171 343.607 753.407 342.158 753.912 340.657L755.44 335.307L751.612 345.267C751.105 346.77 750.324 348.034 748.823 347.529L748.547 347.437C747.045 346.93 747.281 345.482 747.787 343.979L748.088 342.921L745.685 348.298C745.099 349.771 744.252 350.993 742.779 350.407L742.509 350.299C741.036 349.715 741.349 348.282 741.933 346.809L744.54 339.241L741.561 344.39C740.827 345.793 739.857 346.919 738.453 346.185L738.196 346.05C736.792 345.315 737.252 343.921 737.985 342.517L746.445 324.361C746.572 323.197 746.525 322.07 746.447 321.013Z" fill="#FEB4A3"/>
<path d="M811.213 274.035C813.716 267.909 816.661 257.941 817.859 252.756C822.509 232.615 813.789 224.604 796.225 225.761C794.003 239.173 790.569 252.412 793.096 265.809L811.213 274.035Z" fill="#FEB4A3"/>
<path d="M791.522 231.008C793.063 221.272 797.365 212.091 804.277 205.064C804.687 204.645 805.11 204.231 805.547 203.819C814.27 195.593 832.865 194.805 832.865 194.805C832.865 194.805 831.434 224.111 817.975 259.107C817.975 259.107 806.811 267.131 788.875 258.127C788.875 258.127 789.133 246.091 791.522 231.008" fill="#ED144C"/>
<path d="M834.874 409.759C835.254 412.73 835.886 416.205 836.628 419.797L804.787 418.263C802.094 392.491 801.208 371.63 801.043 357.637C802.984 356.842 805.034 355.707 806.462 354.121C810.012 350.174 809.52 337.181 809.52 337.181L807.095 333.241L822.69 328.651L824.002 335.961L834.462 336.806C834.452 342.551 834.448 349.159 834.454 356.389L842.519 360.499V371.125L832.802 373.554C832.802 373.554 833.196 396.638 834.874 409.759Z" fill="#003C61"/>
<path d="M834.874 409.759C833.196 396.638 832.802 373.554 832.802 373.554L842.519 371.125V385.275C842.16 395.47 840.823 408.849 839.54 419.938L836.628 419.797C835.886 416.205 835.254 412.73 834.874 409.759Z" fill="#151544"/>
<path d="M806.462 354.12C805.034 355.707 802.985 356.841 801.043 357.637C800.979 352.245 801.021 347.867 801.105 344.617C801.047 340.853 801.047 337.316 801.13 334.115L803.479 334.304L807.095 333.24L809.521 337.181C809.521 337.181 810.013 350.173 806.462 354.12Z" fill="#151544"/>
<path d="M882.424 433.889V433.891C882.424 433.891 887.8 451.865 890.02 469.623C892.239 487.38 890.791 531.399 890.791 531.399H881.794C881.794 531.399 871.85 500.609 865.599 480.632C859.347 460.655 856.23 436.131 856.23 436.131C854.007 431.461 849.932 424.368 848.874 419.659L880.842 416.376C881.452 424.929 882.424 433.888 882.424 433.889Z" fill="#FEB4A3"/>
<path d="M825.798 358.483L828.722 341.861C828.097 338.981 827.858 337.387 828.095 337.387L829.517 337.346L832.013 323.162L856.475 327.787L848.191 331.134L857.761 339.223C857.761 339.223 858.747 349.779 863.285 356.882C865.717 360.689 872.401 361.265 878.079 360.979C878.109 361.262 878.159 361.551 878.182 361.83C878.986 371.479 881.131 401.254 882.425 419.371L848.442 421.893C839.069 396.825 834.381 383.055 834.381 383.055L825.798 358.483Z" fill="#003C61"/>
<path d="M863.285 356.882C858.748 349.779 857.76 339.223 857.76 339.223L848.192 331.134L856.476 327.788L867.823 329.934C867.823 329.934 869.089 332.375 870.74 336.167L871.368 336.148C871.368 336.416 871.42 337.046 871.516 337.99C874.117 344.212 877.256 353.058 878.08 360.979C872.401 361.264 865.719 360.688 863.285 356.882Z" fill="#151544"/>
<path d="M875.784 533.732V531.892C875.921 528.465 878.788 525.785 882.216 525.878L890.001 526.093C893.028 526.174 895.562 528.41 896.02 531.405C896.081 531.808 896.144 533.537 896.202 535.316C896.202 535.316 887.813 527.336 875.784 533.732Z" fill="#F4EDED"/>
<path d="M899.331 544.442H871.077C871.077 544.442 870.952 537.763 875.784 533.732C887.813 527.336 896.203 535.316 896.203 535.316C899.432 539.302 899.331 544.442 899.331 544.442Z" fill="#151544"/>
<path d="M871.098 548.858H899.35L899.331 544.441H871.076L871.098 548.858Z" fill="#151544"/>
<path d="M795.83 229.274L804.306 226.551L871.649 230.118L877.581 254.154L874.461 304.746L872.553 330.316L872.102 336.336C872.022 337.418 871.288 338.343 870.249 338.66C861.085 341.463 817.75 353.366 800.126 333.958C799.704 333.494 799.477 332.89 799.464 332.262C799.382 328.803 799.276 325.223 799.15 321.564C798.194 293.506 789.84 253.508 795.83 229.274Z" fill="#EA3D63"/>
<path d="M859.552 197.6C857.777 196.729 856.027 195.838 854.339 194.913L854.341 194.917C854.341 194.917 853.125 208.706 835.072 208.213C823.283 207.89 821.801 199.493 822.191 193.704C820.519 194.56 818.943 195.388 817.435 196.205C805.185 202.844 798.428 208.641 798.176 220.938C798.176 220.938 798.176 234.11 822.137 234.11L839.643 234.936L881.94 235.762C890.289 235.925 890.851 223.828 890.851 223.828C891.092 210.753 874.385 204.878 859.552 197.6Z" fill="#EA3D63"/>
<path d="M835.072 208.213C823.282 207.89 821.801 199.493 822.192 193.704C825.596 191.961 828.878 190.156 831.816 188.186C834.462 186.413 839.736 184.297 840.624 184.73C841.528 184.333 844.926 188.777 847.501 190.653C849.593 192.176 851.905 193.578 854.337 194.913L854.341 194.917C854.341 194.917 853.125 208.706 835.072 208.213Z" fill="#FEB4A3"/>
<path d="M848.913 194.235C848.142 202.079 826.683 207.5 827.269 194.861L829.466 169.643L849.695 168.571C847.975 179.476 847.454 188.723 848.913 194.235Z" fill="#FEB4A3"/>
<path d="M826.041 185.479C826.041 185.479 823.227 161.979 825.572 155.273L829.675 127.641C832.02 120.937 837.685 115.08 844.081 116.173L859.773 118.855C866.169 119.948 870.764 128.012 868.417 134.716L853.22 173.647C850.873 180.351 842.507 188.14 826.041 185.479Z" fill="#F29D8E"/>
<path d="M825.829 185.461L825.405 185.426C816.169 183.848 811.407 173.594 812.984 164.358L817.425 122.382C817.831 120.02 820.093 118.418 822.456 118.822L853.78 124.176C856.141 124.578 860.633 127.356 860.229 129.717L851.764 165.701C849.591 178.418 838.547 187.634 825.829 185.461Z" fill="#FEB4A3"/>
<path d="M818.094 145.86C817.54 148.236 818.296 150.443 819.784 150.789C821.271 151.136 822.926 149.491 823.479 147.115C824.032 144.74 823.278 142.532 821.788 142.187C820.302 141.84 818.648 143.484 818.094 145.86Z" fill="#151544"/>
<path d="M839.37 150.41C838.698 152.754 839.342 154.996 840.81 155.417C842.278 155.838 844.012 154.28 844.684 151.934C845.358 149.59 844.714 147.348 843.244 146.928C841.778 146.506 840.043 148.065 839.37 150.41Z" fill="#151544"/>
<path d="M871.78 286.35C857.485 320.364 793.373 334.619 793.373 334.619C793.373 334.619 789.096 332.627 788.323 329.043C787.551 325.459 788.741 322.89 788.741 322.89C788.741 322.89 805.42 316.404 816.053 308.907C826.688 301.411 844.099 291.302 844.099 291.302C844.099 291.302 846.203 275.89 855.429 254.838C855.429 254.838 884.829 255.298 871.78 286.35" fill="#FEB4A3"/>
<path d="M891.086 222.093C893.512 242.178 876.527 276.256 876.527 276.256C876.527 276.256 864.09 281.13 847.448 268.824C847.448 268.824 851.323 249.834 855.472 234.389C861.847 210.665 888.282 198.898 891.086 222.093Z" fill="#ED144C"/>
<path d="M812.686 198.915C812.686 198.915 795.574 210.063 794.146 243.196C793.243 264.103 847.449 266.044 847.449 266.044L812.686 198.915Z" fill="#EA3D63"/>
<path d="M826.05 163.69L826.443 162.061C825.407 161.809 823.566 161.074 823.044 160.174C822.9 159.929 822.872 159.698 822.95 159.432C823.354 158.029 825.968 157.909 826.846 157.969L827.495 158.02L830.188 150.046L828.602 149.509L826.311 156.284C824.97 156.304 822.019 156.621 821.339 158.966C821.135 159.67 821.224 160.381 821.595 161.018C822.646 162.826 825.704 163.608 826.05 163.69Z" fill="#F29D8E"/>
<path d="M825.971 173.865C828.977 173.865 832.157 172.267 832.317 172.186L831.557 170.691C831.518 170.713 827.367 172.793 824.622 172.021C821.862 171.242 819.837 168.147 819.818 168.117L818.41 169.026C818.506 169.174 820.803 172.686 824.166 173.635C824.743 173.797 825.354 173.865 825.971 173.865Z" fill="#F29D8E"/>
<path d="M864.096 166.214C861.202 170.267 856.764 172.059 854.183 170.215C853.93 170.034 853.703 169.823 853.503 169.587C851.679 167.436 852.143 163.191 854.752 159.538C857.646 155.484 862.083 153.692 864.664 155.536C867.244 157.38 866.99 162.16 864.096 166.214Z" fill="#F29D8E"/>
<path d="M815.739 123.304C816.71 112.082 827.781 108.351 839.166 106.915C840.111 106.796 840.945 107.1 841.885 107.255C841.89 107.256 843.69 106.57 843.694 106.571C857.265 108.816 867.785 108.666 871.95 118.484C875.653 127.21 870.043 145.556 864.513 155.866L862.387 155.427C861.849 155.68 859.878 155.872 857.277 157.456C856.889 155.991 855.357 149.42 854.257 133.362C854.257 133.362 839.905 133.655 828.971 131.312C818.038 128.97 815.598 126.431 815.598 126.431C815.598 126.431 815.541 125.85 815.469 124.854C815.594 124.363 815.693 123.851 815.739 123.304Z" fill="#5E301D"/>
<path d="M815.725 126.431C815.725 126.431 814.33 121.023 815.973 116.604C817.616 112.184 827.818 104.471 843.821 106.571L828.777 123.969L815.725 126.431Z" fill="#5E301D"/>
<path d="M820.019 136.6C822.269 136.725 824.347 137.114 826.443 137.82C827.325 138.116 828.267 137.576 828.481 136.673L828.482 136.67C828.661 135.914 828.279 135.114 827.558 134.828C825.137 133.865 822.643 133.388 820.073 133.41C819.293 133.418 818.65 134.036 818.55 134.81C818.435 135.717 819.106 136.549 820.019 136.6Z" fill="#5E301D"/>
<path d="M841.519 141.747C844.017 142.003 846.299 142.553 848.589 143.465C849.45 143.807 850.419 143.31 850.679 142.419L850.738 142.215C850.957 141.47 850.615 140.65 849.909 140.325C847.309 139.125 844.598 138.463 841.774 138.357C840.994 138.326 840.319 138.91 840.182 139.679L840.146 139.885C839.985 140.785 840.609 141.654 841.519 141.747Z" fill="#5E301D"/>
<path d="M796.71 319.492C796.71 319.492 801.674 323.742 801.012 332.621L793.374 334.618L787.74 324.28L788.74 322.89L796.71 319.492Z" fill="#FEB4A3"/>
<path d="M758.622 308.156C758.622 308.156 766.612 308.94 770.26 317.018L764.9 322.841L753.706 317.684L756.126 311.67L758.622 308.156Z" fill="#FEB4A3"/>
<path d="M477.131 323.419C478.367 323.787 479.997 324.472 481.707 325.109C487.236 327.173 487.38 323.575 487.38 323.575L481.236 320.457L476.631 318.005C473.708 315.359 466.183 313.253 466.183 313.253L460.711 315.351L460.996 318.961C460.981 319.139 461.435 320.155 461.461 320.337L462.953 328.157V328.163L464.96 338.68C465.149 339.968 465.596 341.101 466.883 340.913L467.119 340.877C468.405 340.689 468.427 339.484 468.237 338.197L467.781 333.655L469.423 342.257C469.612 343.544 470.06 344.68 471.347 344.491L471.581 344.456C472.869 344.265 472.891 343.061 472.701 341.775L472.611 340.876L473.769 345.571C474.027 346.845 474.533 347.955 475.808 347.696L476.043 347.649C477.317 347.392 477.273 346.188 477.016 344.913L476.013 338.42L477.669 343.013C478.057 344.253 478.677 345.305 479.919 344.917L480.145 344.845C481.387 344.456 481.219 343.263 480.829 342.023L476.644 326.123C476.711 325.165 476.913 324.261 477.131 323.419Z" fill="#FFCFC0"/>
<path d="M415.96 109.551C415.96 109.551 389.693 96.6002 377.291 121.59C367.807 140.696 373.368 181.112 363.384 196.635C356.455 207.41 362.991 221.81 375.561 224.279C381.027 225.352 387.564 225.631 395.367 224.655C434.765 219.73 435.295 208.598 435.295 195.464C435.295 182.331 435.295 156.794 420.885 148.403L415.96 109.551Z" fill="#5E301D"/>
<path d="M446.288 261.544C443.269 253.703 439.62 236.727 439.926 230.848C441.152 230.779 441.721 231.967 442.854 231.664C443.986 231.361 444.256 230.873 445.126 230.363C449.768 229.749 453.216 226.196 457.818 225.407C459.349 236.963 460.73 248.529 461.829 260.136L448.37 267.132C448.337 266.997 446.338 261.676 446.288 261.544Z" fill="#FFCFC0"/>
<path d="M446.745 261.828L460.601 254.973C462.634 263.153 465.009 271.357 466.05 279.792C468.126 293.805 469.554 300.505 469.905 314.698L460.995 318.962C455.091 296.71 452.273 285.029 446.745 261.828Z" fill="#FFCFC0"/>
<path d="M425.168 194.85C425.219 194.871 425.163 194.634 425.227 194.554C429.008 195.756 433.824 196.914 437.407 198.255C444.586 200.943 451.023 207.142 453.71 213.592C456.686 220.738 458.072 226.242 460.975 232.926C461.204 233.454 461.299 233.802 461.542 234.336C460.048 236.552 458.444 238.65 456.271 240.134C453.642 232.939 450.044 221.059 446.94 215.079C441.379 204.368 434.576 200.326 425.168 194.85Z" fill="#FAC630"/>
<path d="M425.155 194.537C425.16 194.543 425.203 194.543 425.201 194.554C425.195 194.633 429.48 195.822 429.449 195.801C438.855 201.277 441.38 204.369 446.94 215.079C450.044 221.059 453.641 232.939 456.271 240.135C452.649 242.911 448.633 244.135 444.345 245.317C444.199 245.055 444.071 244.838 443.921 244.578C440.161 238.005 436.476 231.378 432.863 224.719C430.34 219.082 427.821 213.443 425.299 207.806C425.251 203.382 425.203 198.959 425.155 194.537Z" fill="#FFD15F"/>
<path d="M403.671 200.632C408.651 200.472 412.56 196.305 412.4 191.325L411.683 168.869L393.646 169.446L394.364 191.902C394.523 196.882 398.691 200.792 403.671 200.632Z" fill="#FFCFC0"/>
<path d="M362.023 534.987L362.003 534.986C362.003 534.986 362.827 478.563 363.833 461.614C364.838 444.664 369.314 438.099 369.314 438.099C369.314 438.099 370.278 384.403 372.37 354.69C372.99 345.884 376.851 341.068 381.962 338.623L385.07 313.542L414.198 303.978L416.481 303.228L414.741 312.771L409.907 339.286C412.029 339.946 413.329 340.462 413.329 340.462C413.329 340.462 414.061 379.59 391.347 441.082C391.347 441.082 386.461 487.443 374.491 537.402H372.962L372.642 536.686L361.853 537.402L362.023 534.987Z" fill="#FFCFC0"/>
<path d="M432.879 538.022L432.859 538.025C432.859 538.025 423.304 482.409 421.18 465.564C419.053 448.718 422.248 441.442 422.248 441.442C422.248 441.442 413.332 388.484 409.932 358.892C408.924 350.122 411.833 344.678 416.408 341.336L414.856 316.11L441.733 301.36L443.839 300.204L443.881 309.904L444 336.854C446.208 337.113 447.58 337.382 447.58 337.382C447.58 337.382 455.487 375.71 444.455 440.328C444.455 440.328 447.259 485.273 444.669 536.581L443.64 536.706L443.629 537.742L433.155 540.426L432.879 538.022Z" fill="#FFCFC0"/>
<path d="M364.322 356.074C368.315 321.296 367.909 302.368 388.059 283.462C389.702 281.797 390.767 281.105 390.767 281.105L391.254 276.016L400.034 276.54C403.489 275.701 408.069 275.153 414.121 275.406C425.222 275.872 431.561 277.45 434.837 278.616L437.685 278.786C437.685 278.786 438.394 280.144 439.471 282.572C450.517 300.342 452.175 318.481 453.215 338.548C454.307 359.604 464.354 463.568 464.354 463.568C464.354 463.568 444.261 478.638 412.155 475.362C380.047 472.086 376.11 468.282 360.166 470.466C360.166 470.466 361.138 383.812 364.322 356.074" fill="#233A91"/>
<path d="M393.025 190.837C395.011 189.334 400.579 187.646 401.329 187.874C402.025 187.51 407.808 188.126 410.041 189.231C416.663 192.51 423.192 194.471 428.292 197.015C427.197 200.31 426.537 203.935 425.697 206.866C424.228 211.998 423.224 217.05 422.36 222.181L404.716 223.773L370.556 226.997C363.813 227.633 362.735 219.003 362.735 219.003C361.609 206.923 380.941 199.986 393.025 190.837Z" fill="#FFCFC0"/>
<path d="M416.762 131.962C404.478 132.017 392.193 132.061 379.908 132.088L386.733 163.242C387.757 170.286 392.974 179.613 409.68 180.149C409.68 180.149 416.952 157.572 415.928 150.528L416.762 131.962Z" fill="#EFAD9C"/>
<path d="M387.68 119.55L389.371 155.818C389.072 168.744 396.967 179.875 409.892 180.172L410.318 180.219C419.704 180.435 427.254 172.63 427.47 163.243L429.89 119.375C415.819 119.448 401.75 119.511 387.68 119.55Z" fill="#FFCFC0"/>
<path d="M375.939 153.91C378.01 158.451 382.031 161.063 384.922 159.744C385.207 159.614 385.471 159.451 385.712 159.258C387.918 157.49 388.274 153.226 386.408 149.132C384.338 144.591 380.316 141.979 377.426 143.299C374.534 144.618 373.868 149.368 375.939 153.91Z" fill="#EFAD9C"/>
<path d="M402.809 147.16C403.021 149.596 401.957 151.678 400.433 151.811C398.909 151.943 397.501 150.078 397.289 147.642C397.077 145.207 398.14 143.126 399.664 142.992C401.189 142.859 402.596 144.726 402.809 147.16Z" fill="#151544"/>
<path d="M399.322 143.543L395.933 143.206L397.99 145.364L399.322 143.543Z" fill="#151544"/>
<path d="M399.596 143.389L397.929 142.095L398.101 144.03L395.932 144.873L397.689 146.186L399.596 143.389Z" fill="#151544"/>
<path d="M424.609 146.761C424.698 149.203 423.531 151.23 422.002 151.286C420.473 151.342 419.162 149.407 419.071 146.963C418.982 144.521 420.149 142.495 421.678 142.439C423.206 142.383 424.519 144.317 424.609 146.761Z" fill="#151544"/>
<path d="M422.182 142.766L425.59 142.784L423.31 144.716L422.182 142.766Z" fill="#151544"/>
<path d="M422.204 142.91L423.871 141.616L423.699 143.551L425.868 144.395L423.813 145.271L422.204 142.91Z" fill="#151544"/>
<path d="M413.774 168.172C415.688 168.172 417.199 167.973 417.294 167.96L417.079 166.363C417.047 166.368 413.754 166.8 410.855 166.365C408.139 165.957 406.384 164.08 406.368 164.061L405.176 165.147C405.263 165.241 407.316 167.464 410.615 167.959C411.683 168.119 412.783 168.172 413.774 168.172Z" fill="#EFAD9C"/>
<path d="M403.907 166.729C406.96 165.457 407.452 162.565 407.471 162.442L405.882 162.183C405.867 162.27 405.49 164.325 403.287 165.242L403.907 166.729Z" fill="#EFAD9C"/>
<path d="M381.455 198.904L413.84 222.348L426.468 194.825C427.59 195.214 428.283 195.506 429.45 195.8L432.438 209.06C434.231 214.661 436.851 219.97 440.343 224.702C444.804 230.745 449.586 240.41 441.53 250.857C437.162 256.521 437.14 268.929 438.212 279.934C424.179 285.62 398.015 282.141 391.188 281.094L373.518 226.792L381.455 198.904Z" fill="#FFD15F"/>
<path d="M439.842 252.481C439.842 252.481 434.936 257.584 422.604 255.433C422.604 255.433 429.404 260.989 437.983 258.569L439.842 252.481Z" fill="#FAC630"/>
<path d="M412.103 254.466C412.103 254.466 395.719 260.053 386.667 253.016L391.12 260.098C391.12 260.098 403.947 261.636 412.103 254.466" fill="#FAC630"/>
<path d="M378.081 242.116L381.998 226.788C384.222 239.093 383.526 251.537 392.065 259.613C392.274 260.259 392.494 260.899 392.721 261.529C394.753 267.164 395.098 275.445 395.974 281.817C393.762 281.547 391.965 281.288 390.769 281.105L378.081 242.116Z" fill="#FAC630"/>
<path d="M381.843 159.338C381.843 160.518 382.8 161.475 383.98 161.475C385.16 161.475 386.117 160.518 386.117 159.338C386.117 158.158 385.16 157.201 383.98 157.201C382.8 157.201 381.843 158.158 381.843 159.338Z" fill="#FFD15F"/>
<path d="M373.413 276.646C370.013 268.962 365.533 252.186 365.552 246.299C366.772 246.171 367.398 247.329 368.516 246.97C369.632 246.613 369.876 246.111 370.721 245.559C375.328 244.718 378.597 241.001 383.154 239.986C385.25 251.451 387.198 262.937 388.866 274.477L375.769 282.125C375.726 281.991 373.469 276.774 373.413 276.646Z" fill="#FFCFC0"/>
<path d="M375.77 282.125L382.554 268.236C389.159 273.469 396.052 278.516 402.027 284.557C412.23 294.385 422.314 304.485 431.259 315.509L425.38 321.296C407.115 307.284 394.318 297.121 375.77 282.125Z" fill="#FFCFC0"/>
<path d="M415.547 158.387C415.973 158.286 419.691 157.33 419.169 154.958C418.803 153.305 416.973 152.831 415.915 152.694L414.915 147.195L413.214 147.505L414.462 154.359L415.174 154.37C415.833 154.379 417.327 154.634 417.481 155.33C417.573 155.746 416.273 156.434 415.147 156.705L415.547 158.387Z" fill="#EFAD9C"/>
<path d="M382.785 196.812C386.512 194.253 390.602 192.583 390.602 192.583C397.732 203.331 414.142 219.076 414.756 191.383C414.756 191.383 414.821 191.399 414.921 191.421C418.682 192.796 422.632 193.699 426.468 194.825L427.461 209.064L418.973 229.387L399.808 228.612L374.317 205.896C374.317 205.896 379.058 199.372 382.785 196.812Z" fill="#FFD15F"/>
<path d="M379.615 198.584C379.58 198.631 380.588 198.063 380.49 198.02C377.624 199.207 369.506 202.538 366.998 205.659C361.97 211.914 359.422 221.084 360.358 228.546C361.395 236.81 363.004 242.708 363.87 250.502C363.938 251.116 364.034 251.492 364.094 252.122C366.576 253.43 369.098 254.57 371.81 254.839C370.435 246.707 367.502 233.667 367.182 226.431C366.61 213.471 374.036 208.618 379.615 198.584Z" fill="#FAC630"/>
<path d="M383.71 196.199C383.71 196.207 379.247 198.473 377.902 199.111C377.703 199.206 377.535 199.259 377.292 199.378C376.782 199.627 374.408 200.231 371.034 202.521C365.456 212.554 365.618 213.179 366.191 226.139C366.511 233.375 370.136 246.673 371.51 254.805C376.188 255.537 381.212 254.462 385.66 253.347V253.346C385.626 244.909 385.488 236.458 385.264 228.014C384.602 221.403 383.936 214.793 383.272 208.182C381.026 203.997 385.958 200.385 383.71 196.199Z" fill="#FFD15F"/>
<path d="M382.538 144.231C382.538 144.231 405.38 134.051 412.694 123.663C412.694 123.663 418.092 137.851 428.922 136.903C428.922 136.903 437.248 122.022 431.229 112.173C425.209 102.322 384.55 106.855 380.049 117.07C375.548 127.286 382.538 144.231 382.538 144.231Z" fill="#5E301D"/>
<path d="M380.365 548.858H357.204L357.22 545.237H380.381L380.365 548.858Z" fill="#151544"/>
<path d="M358.608 539.58L359.784 537.757C359.308 538.344 358.923 538.962 358.608 539.58Z" fill="#F4EDED"/>
<path d="M357.22 545.237H380.382C380.382 545.237 380.436 542.333 378.935 539.48C377.947 537.6 376.083 536.31 373.986 535.974C369.592 535.272 366.174 535.446 363.819 535.812C361.575 536.16 359.64 537.558 358.608 539.58C357.167 542.402 357.22 545.237 357.22 545.237Z" fill="#233A91"/>
<path d="M468.091 548.858H430.028L430.055 545.237H468.118L468.091 548.858Z" fill="#151544"/>
<path d="M430.028 545.237H468.117C468.117 545.237 468.02 541.98 466.693 540.218C465.367 538.457 447.558 535.17 444.702 534.622C444.702 534.622 444.193 536.501 441.302 537.009C438.412 537.518 432.298 533.657 432.298 533.657L431.645 533.308L430.028 545.237Z" fill="#233A91"/>
<path d="M423.991 137.302C421.739 137.262 419.636 137.498 417.493 138.047C416.595 138.278 415.695 137.671 415.547 136.755V136.751C415.423 135.986 415.861 135.216 416.601 134.983C419.087 134.199 421.609 133.907 424.171 134.118C424.949 134.183 425.545 134.846 425.587 135.624C425.636 136.539 424.905 137.319 423.991 137.302Z" fill="#5E301D"/>
<path d="M402.45 140.512C399.941 140.585 397.624 140.964 395.274 141.706C394.39 141.985 393.46 141.418 393.266 140.512L393.221 140.302C393.058 139.542 393.46 138.752 394.188 138.478C396.869 137.473 399.621 137.012 402.444 137.11C403.225 137.138 403.854 137.77 403.936 138.548L403.957 138.754C404.052 139.664 403.365 140.485 402.45 140.512Z" fill="#5E301D"/>
<path d="M427.222 310.682C427.222 310.682 420.921 312.244 421.552 318.352L425.193 321.174L428.397 322.098L429.46 313.323L427.222 310.682Z" fill="#FFCFC0"/>
<path d="M459.876 314.698C459.876 314.698 463.467 311.414 469.822 312.026L469.904 314.698L460.996 318.962L459.876 314.698Z" fill="#FFCFC0"/>
<path d="M666.919 158.859C669.351 115.095 656.459 108.711 656.459 108.711L635.519 112.682L615.81 105.87C615.81 105.87 589.305 115.095 601.273 158.859C601.273 158.859 582.763 192.07 608.923 207.978H634.097H659.269C685.429 192.07 666.919 158.859 666.919 158.859Z" fill="#151544"/>
<path d="M640.668 191.412C638.683 189.908 633.115 188.22 632.363 188.45C631.667 188.084 625.881 188.7 623.649 189.806C617.027 193.087 610.495 195.048 605.395 197.591C606.489 200.888 607.149 204.514 607.989 207.444C609.46 212.578 610.464 217.631 611.328 222.762L628.975 224.355L663.14 227.579C669.885 228.215 670.964 219.584 670.964 219.584C672.088 207.503 652.755 200.564 640.668 191.412Z" fill="#F7A17E"/>
<path d="M526.108 231.436C525.64 230.293 524.836 228.802 524.069 227.236C521.584 222.161 524.999 221.686 524.999 221.686L528.544 227.248L531.311 231.405C534.105 233.941 538.656 242.706 538.656 242.706L535.331 246.322L531.015 245.996C530.848 246.026 530.687 246.081 530.509 246.073L522.921 245.385L522.916 245.384L512.709 244.458C511.467 244.398 510.344 244.078 510.404 242.836L510.413 242.608C510.473 241.365 511.62 241.232 512.863 241.292L517.233 241.3L508.884 240.542C507.64 240.482 506.517 240.162 506.577 238.92L506.588 238.69C506.648 237.448 507.793 237.314 509.036 237.374L509.903 237.377L505.321 236.713C504.083 236.586 502.979 236.208 503.105 234.969L503.129 234.741C503.253 233.504 504.405 233.432 505.643 233.558L511.921 233.906L507.392 232.758C506.173 232.504 505.115 232.012 505.368 230.794L505.415 230.57C505.669 229.352 506.821 229.4 508.04 229.654L523.577 232.153C524.483 231.998 525.324 231.722 526.108 231.436Z" fill="#F7A17E"/>
<path d="M605.394 216.67C605.394 216.67 599.312 247.367 585.478 257.063C571.645 266.759 531.301 244.806 531.301 244.806L533.205 237.234C533.205 237.234 570.15 246.155 575.853 243.982C581.556 241.81 588.617 214.163 588.617 214.163L605.394 216.67Z" fill="#F7A17E"/>
<path d="M575.995 222.673C575.995 222.673 595.155 195.344 613.787 194.04C613.663 194.92 607.128 198.74 607.128 198.74L602.197 211.459L603.357 234.125L605.299 234.735C602.604 238.759 600.579 241.349 600.579 241.349C600.579 241.349 587.771 236.345 575.995 222.673" fill="#3EAFAC"/>
<path d="M593.489 234.824L591.704 238.742C591.704 238.742 575.299 232.677 574.011 224.106L576.363 220.266C576.363 220.266 581.985 228.42 593.489 234.824Z" fill="#3EAFAC"/>
<path d="M595.889 309.31L592.797 322.457L584.165 425.891L583.447 538.65L594.917 537.474L606.501 417.027L613.765 299.27L595.889 309.31Z" fill="#FBBA8F"/>
<path d="M609.768 337.565L615.658 335.224L615.254 347.945L609.824 344.82C609.759 340.212 609.768 337.565 609.768 337.565Z" fill="#5D97B7"/>
<path d="M583.536 423.52C583.536 423.52 583.53 422.498 583.356 420.66C577.363 356.782 588.851 332.252 595.892 299.269L614.203 298.944C614.203 298.944 626.142 310.641 625.788 325.972C625.727 328.736 625.174 333.774 624.311 340.165L617.514 334.488L615.658 335.224L615.664 335.004C615.664 335.004 610.851 332.921 607.982 329.922C607.982 329.922 607.916 336.509 609.767 344.788L609.824 344.821C609.994 356.746 610.66 381.837 613.258 408.4C611.384 419.106 610.064 426.412 610.064 426.412C610.064 426.412 613.118 440.606 612.019 452.817C610.92 465.028 596.294 533.156 596.294 533.156C596.294 533.156 592.275 535.894 583.086 532.362C583.086 532.362 580.57 463.08 583.536 423.52" fill="#12496B"/>
<path d="M607.982 329.923C610.851 332.921 615.664 335.004 615.664 335.004L615.658 335.224L609.768 337.565C609.768 337.565 609.759 340.212 609.824 344.82L609.767 344.788C607.916 336.509 607.982 329.923 607.982 329.923Z" fill="#022E44"/>
<path d="M609.768 337.565L617.515 334.487L624.311 340.165C621.794 358.847 616.628 389.136 613.258 408.4C609.656 371.573 609.768 337.565 609.768 337.565Z" fill="#022E44"/>
<path d="M617.514 301.611L630.669 448.359L642.049 533.406L652.607 534.096L651.533 445.683L647.487 311.586L617.514 301.611Z" fill="#FBBA8F"/>
<path d="M642.926 300.43C642.926 300.43 654.01 307.718 657.439 327.817C662.412 356.969 653.532 422.111 653.532 422.111C653.532 422.111 658.391 434.766 658.884 447.014C659.378 459.265 653.398 529.589 653.398 529.589C653.398 529.589 650.516 532.183 640.947 529.873C640.947 529.873 630.536 462.098 628.35 422.486C628.35 422.486 618.984 375.558 616.172 340.707L612.019 294.055L642.926 300.43Z" fill="#12496B"/>
<path d="M655.564 536.856C655.505 536.414 655.585 534.272 655.728 531.364C655.806 529.777 654.54 528.44 652.953 528.44H641.026C639.386 528.44 638.104 529.852 638.26 531.484L638.681 535.877C636.369 537.108 634.734 540.124 634.744 543.666L634.757 548.858H658.218L658.205 543.666C658.2 540.854 657.15 538.38 655.564 536.856Z" fill="#04202B"/>
<path d="M599.246 539.541C598.978 537.801 598.358 534.677 597.985 532.831C597.827 532.047 597.042 531.559 596.271 531.769C594.741 532.183 592.238 532.762 590.137 532.762C586.855 532.762 584.218 531.351 582.162 531.843C580.107 532.334 579.161 537.067 579.161 537.067C574.619 538.826 568.355 538.722 568.355 538.722C568.355 538.722 567.718 538.747 566.749 538.831C567.637 540.154 568.511 541.974 569.034 544.386H599.405C599.443 542.67 599.433 540.742 599.246 539.541Z" fill="#04202B"/>
<path d="M569.034 544.386C568.511 541.974 567.636 540.154 566.748 538.831C565.298 538.955 563.084 539.21 561 539.724C557.523 540.583 556.867 544.386 556.867 544.386L556.82 548.036H569.49H599.246C599.246 548.036 599.359 546.35 599.404 544.386H569.034Z" fill="#04202B"/>
<path d="M624.01 180.723C624.01 180.723 616.737 158.14 617.761 151.096L616.504 123.124C617.528 116.079 621.98 109.231 628.481 109.081L644.432 108.713C650.933 108.564 657 115.616 655.976 122.663L646.962 163.812C645.937 170.859 640.718 180.185 624.01 180.723Z" fill="#E17B58"/>
<path d="M623.798 180.746L623.373 180.793C613.985 181.009 606.434 173.201 606.217 163.813L603.695 131.15C603.502 122.78 610.194 115.773 618.563 115.58L639.554 115.097C641.955 115.041 646.906 116.912 646.962 119.313L644.325 156.388C644.621 169.316 636.726 180.448 623.798 180.746Z" fill="#F7A17E"/>
<path d="M630.883 146.122C630.669 148.558 631.733 150.639 633.257 150.773C634.783 150.906 636.191 149.039 636.404 146.603C636.616 144.169 635.552 142.086 634.027 141.953C632.503 141.819 631.095 143.686 630.883 146.122Z" fill="#151544"/>
<path d="M634.37 142.503L637.76 142.167L635.702 144.325L634.37 142.503Z" fill="#151544"/>
<path d="M634.096 142.349L635.763 141.056L635.59 142.99L637.76 143.834L636.003 145.146L634.096 142.349Z" fill="#151544"/>
<path d="M610.91 145.955C610.821 148.399 611.989 150.425 613.517 150.481C615.047 150.538 616.359 148.602 616.449 146.159C616.539 143.715 615.373 141.689 613.842 141.633C612.313 141.577 610.999 143.511 610.91 145.955Z" fill="#151544"/>
<path d="M613.339 141.96L609.929 141.978L612.211 143.91L613.339 141.96Z" fill="#151544"/>
<path d="M613.316 142.104L611.648 140.81L611.822 142.745L609.651 143.589L611.706 144.465L613.316 142.104Z" fill="#151544"/>
<path d="M630.021 201.209C625.039 201.049 621.129 196.881 621.289 191.9L622.006 169.441L640.047 170.017L639.327 192.477C639.169 197.458 635.002 201.368 630.021 201.209Z" fill="#F7A17E"/>
<path d="M592.575 251.456C584.518 241.008 589.299 231.341 593.762 225.296C597.254 220.564 599.875 215.252 601.667 209.65L608.327 196.377L620.27 222.94L652.661 199.493L660.599 227.385L642.926 300.429C636.098 301.478 609.929 304.957 595.891 299.269C596.966 288.262 596.943 257.121 592.575 251.456Z" fill="#49BEBF"/>
<path d="M593.844 253.068C593.844 253.068 598.749 258.172 611.084 256.021C611.084 256.021 604.281 261.577 595.702 259.157L593.844 253.068Z" fill="#3EAFAC"/>
<path d="M621.587 255.053C621.587 255.053 637.974 260.641 647.027 253.603L642.572 260.687C642.572 260.687 629.744 262.224 621.587 255.053Z" fill="#3EAFAC"/>
<path d="M652.736 199.122L652.78 199.15L652.661 199.493C652.661 199.493 666.345 211.051 668.278 224.238C669.358 231.601 670.084 242.926 670.514 251.495C667.532 252.657 663.474 253.427 657.642 253.191C657.572 252.919 657.502 252.647 657.432 252.373C655.658 245.434 653.869 238.082 652.089 230.271L649.324 211.949L652.736 199.122Z" fill="#49BEBF"/>
<path d="M652.661 199.493L652.78 199.15L663.636 205.98C668.899 209.665 674.928 218.929 675.285 225.344C675.681 232.449 676.263 239.232 676.975 245.694C677.031 246.205 677.092 246.701 677.151 247.206C675.616 248.6 673.667 250.266 670.515 251.494C670.083 242.925 669.357 231.601 668.279 224.238C666.345 211.05 652.661 199.493 652.661 199.493Z" fill="#3EAFAC"/>
<path d="M655.964 246.544L651.697 227.37C649.473 239.677 650.169 252.125 641.629 260.202C641.42 260.848 641.201 261.488 640.973 262.118C638.94 267.753 638.596 294.702 637.718 301.076C639.933 300.805 641.729 300.548 642.926 300.364L655.964 246.544Z" fill="#3EAFAC"/>
<path d="M632.224 125.876C632.224 125.876 637.069 131.713 641.973 136.85C647.239 142.368 648.023 150.249 648.023 150.249C648.023 150.249 650.725 142.754 655.764 143.677C655.764 143.677 666.783 124.91 660.473 113.114C654.167 101.318 622.784 98.6277 612.471 107.898C602.277 117.061 598.704 119.238 603.692 136.209C603.692 136.209 609.155 134.11 619.836 130.254C630.731 126.32 632.224 125.876 632.224 125.876Z" fill="#151544"/>
<path d="M613.786 194.04C613.786 194.04 617.276 218.49 621.044 219.801C624.813 221.112 650.37 197.389 650.37 197.389C650.37 197.389 651.666 198.242 652.78 199.15C653.893 200.058 653.484 214.449 653.484 214.449C653.484 214.449 634.97 232.853 619.897 232.853C604.824 232.853 605.394 199.868 605.394 199.868L613.786 194.04Z" fill="#49BEBF"/>
<path d="M622.465 159.591C622.039 159.49 618.321 158.534 618.842 156.162C619.21 154.507 621.041 154.034 622.098 153.898L623.097 148.397L624.799 148.706L623.55 155.563L622.838 155.574C622.179 155.583 620.685 155.838 620.531 156.534C620.439 156.95 621.739 157.638 622.866 157.909L622.465 159.591Z" fill="#E17B58"/>
<path d="M588.766 235.306C588.766 235.306 592.555 198.118 613.787 194.04C613.66 194.919 607.631 201.214 607.631 201.214L601.778 211.987L602.85 234.659L604.788 235.275C602.079 239.288 600.043 241.871 600.043 241.871C600.043 241.871 600.49 249.023 588.766 235.306Z" fill="#49BEBF"/>
<path d="M648.463 148.233C648.463 148.233 648.405 148.137 648.297 147.947C648.242 148.004 648.185 148.067 648.129 148.124C650.325 144.579 653.733 142.707 656.27 143.865C659.162 145.184 659.827 149.936 657.758 154.479C655.687 159.021 651.665 161.633 648.773 160.315C648.489 160.184 648.223 160.02 647.983 159.827C646.351 158.52 645.738 155.844 646.281 152.884C647.433 151.303 648.946 149.659 650.378 148.252L648.463 148.233Z" fill="#E17B58"/>
<path d="M648.129 148.124C648.185 148.067 648.242 148.004 648.297 147.947C648.405 148.137 648.463 148.233 648.463 148.233L650.378 148.252C648.946 149.659 647.433 151.303 646.281 152.884C646.473 151.843 646.801 150.767 647.286 149.701C647.541 149.145 647.823 148.619 648.129 148.124Z" fill="#E17B58"/>
<path d="M651.852 159.908C651.852 161.088 650.894 162.045 649.714 162.045C648.534 162.045 647.577 161.088 647.577 159.908C647.577 158.728 648.534 157.769 649.714 157.769C650.894 157.769 651.852 158.728 651.852 159.908Z" fill="#3EAFAC"/>
<path d="M595.115 302.807C595.115 302.807 612.975 310.349 645.055 302.203L643.209 299.192C643.209 299.192 606.769 304.908 595.96 298.536L595.115 302.807Z" fill="#04202B"/>
<path d="M659.919 203.641C659.919 203.641 651.059 196.152 646.239 195.239Z" fill="#3EAFAC"/>
<path d="M619.861 308.277H611.491C610.835 308.277 610.306 307.747 610.306 307.092V300.456C610.306 299.801 610.835 299.269 611.491 299.269H619.861C620.515 299.269 621.047 299.801 621.047 300.456V307.092C621.047 307.747 620.515 308.277 619.861 308.277Z" fill="#B8BBC9"/>
<path d="M656.828 252.913L657.047 257.214C657.047 257.214 674.532 257.608 678.884 250.113L678.108 245.676C678.108 245.676 669.88 251.19 656.828 252.913Z" fill="#3EAFAC"/>
<path d="M615.81 168.062C615.589 167.279 615.429 166.553 615.322 165.987C615.226 165.465 615.733 165.039 616.229 165.23C617.141 165.581 618.543 166.081 620.147 166.506C622.259 167.069 626.781 166.749 628.91 166.554C629.437 166.506 629.815 167.046 629.585 167.522C629.289 168.135 628.851 168.95 628.289 169.802C626.141 169.769 622.242 169.658 620.182 169.275C618.874 169.033 617.231 168.537 615.81 168.062Z" fill="white"/>
<path d="M622.646 171.79C624.09 171.487 625.768 171.667 626.702 171.814C625.287 173.317 623.454 174.526 621.207 174.419C620.707 174.395 620.26 174.255 619.836 174.069C620.554 173.087 621.555 172.019 622.646 171.79Z" fill="white"/>
<path d="M615.81 168.062C617.231 168.537 618.874 169.033 620.182 169.275C622.242 169.658 626.14 169.769 628.288 169.802C627.843 170.477 627.307 171.169 626.702 171.813C625.768 171.667 624.09 171.487 622.646 171.79C621.555 172.019 620.554 173.087 619.836 174.069C617.682 173.123 616.459 170.349 615.81 168.062Z" fill="white"/>
<path d="M640.203 140.055C639.988 140.055 639.768 140.005 639.564 139.897C636.054 138.042 631.638 138.245 631.595 138.243C630.836 138.274 630.192 137.698 630.155 136.945C630.116 136.189 630.694 135.543 631.45 135.503C631.66 135.493 636.652 135.255 640.844 137.47C641.515 137.825 641.772 138.654 641.416 139.325C641.172 139.79 640.696 140.055 640.203 140.055Z" fill="#151544"/>
<path d="M609.114 138.532C608.577 138.532 608.066 138.215 607.846 137.689C607.554 136.991 607.882 136.189 608.581 135.896C608.753 135.823 612.884 134.116 617.169 135.012C617.912 135.167 618.388 135.893 618.232 136.635C618.078 137.376 617.345 137.847 616.609 137.699C613.177 136.98 609.674 138.412 609.641 138.427C609.468 138.499 609.289 138.532 609.114 138.532Z" fill="#151544"/>
<path d="M513.548 233.57L528.076 224.088C528.076 224.088 537.812 230.754 537.661 230.918C537.512 231.08 519.52 239.931 519.297 239.931C519.076 239.931 513.548 233.57 513.548 233.57Z" fill="#D7DEE2"/>
<path d="M492.912 253.14C492.912 253.14 496.829 236.011 502.44 226.14C502.44 226.14 522.576 234.887 527.216 233.636C531.856 232.385 546.395 220.557 546.395 220.557L552.525 223.728C552.525 223.728 541.667 234.14 525.265 241.709C508.863 249.28 492.912 253.14 492.912 253.14Z" fill="#EBEFF2"/>
<path d="M442.424 312.712C436.458 314.69 436.63 322.824 436.966 326.157C437.052 326.997 437.232 327.818 437.498 328.618L448.7 362.376C448.972 363.198 449.698 363.781 450.562 363.865C452.229 364.028 455.237 364.028 459.034 362.768C462.83 361.508 465.241 359.71 466.481 358.582C467.124 357.998 467.357 357.098 467.084 356.273L455.882 322.517C455.617 321.717 455.27 320.952 454.837 320.228C453.113 317.354 448.389 310.732 442.424 312.712Z" fill="#292843"/>
<path d="M446.252 315.011L440.731 316.843L435.589 301.35C435.337 300.591 435.749 299.771 436.507 299.519L439.28 298.599C440.04 298.347 440.859 298.759 441.111 299.518L446.252 315.011Z" fill="#292843"/>
<path d="M437.904 329.842L444.659 350.199C448.927 349.773 455.696 348.385 463.06 344.149L456.304 323.79C448.942 328.027 442.172 329.415 437.904 329.842Z" fill="#E32A2F"/>
<path d="M743.925 325.824C737.959 327.804 738.131 335.938 738.467 339.271C738.553 340.11 738.733 340.931 738.999 341.732L750.201 375.487C750.473 376.311 751.199 376.895 752.063 376.978C753.73 377.14 756.738 377.14 760.535 375.882C764.331 374.622 766.742 372.823 767.982 371.695C768.623 371.112 768.858 370.211 768.585 369.387L757.383 335.631C757.118 334.831 756.773 334.064 756.338 333.342C754.615 330.467 749.89 323.846 743.925 325.824Z" fill="#292843"/>
<path d="M747.752 328.125L742.231 329.957L737.09 314.463C736.838 313.705 737.248 312.885 738.007 312.633L740.78 311.713C741.54 311.461 742.359 311.873 742.612 312.631L747.752 328.125Z" fill="#292843"/>
<path d="M739.405 342.955L746.159 363.313C750.427 362.885 757.198 361.497 764.561 357.26L757.806 336.904C750.442 341.141 743.673 342.529 739.405 342.955Z" fill="#E32A2F"/>
<path d="M775.255 323.592L773.467 322.105C772.538 321.332 771.338 320.96 770.135 321.071L770.116 321.072L769.762 317.212C769.674 316.255 768.826 315.548 767.867 315.636L763.944 315.996C762.986 316.084 762.28 316.933 762.368 317.892L762.723 321.752L762.704 321.753C761.5 321.864 760.39 322.448 759.616 323.377L758.13 325.167C757.356 326.095 756.984 327.293 757.095 328.497L761.187 373.037C761.418 375.545 763.636 377.391 766.144 377.16L776.85 376.176C779.356 375.947 781.203 373.727 780.972 371.22L776.88 326.68C776.77 325.476 776.184 324.365 775.255 323.592Z" fill="#EBEFF2"/>
<path d="M779.544 355.676L759.759 357.493L757.85 336.709L777.634 334.892L779.544 355.676Z" fill="#144658"/>
<path d="M615.845 276.231C615.938 270.989 611.75 266.648 606.506 266.555C601.265 266.461 596.925 270.649 596.83 275.892L596.613 288.097L615.628 288.436L615.845 276.231ZM592.286 275.811C592.425 268.063 598.84 261.872 606.589 262.009C614.336 262.148 620.529 268.564 620.389 276.312L620.092 293.063L591.988 292.561L592.286 275.811Z" fill="#E5BA93"/>
<path d="M605.015 283.774L633.973 284.29L629.794 353.44L603.782 352.976L577.77 352.512L576.058 283.258L605.015 283.774Z" fill="#E5BA93"/>
<path d="M594.729 278.23C590.429 279.657 590.553 285.518 590.797 287.921C590.857 288.526 590.987 289.118 591.179 289.694L599.253 314.023C599.449 314.617 599.973 315.037 600.593 315.098C601.797 315.214 603.965 315.215 606.701 314.307C609.437 313.399 611.175 312.103 612.069 311.29C612.532 310.87 612.7 310.221 612.503 309.627L604.429 285.298C604.239 284.721 603.988 284.169 603.676 283.647C602.433 281.577 599.029 276.803 594.729 278.23Z" fill="#292843"/>
<path d="M597.488 279.888L593.51 281.208L589.931 270.425C589.679 269.666 590.09 268.846 590.85 268.594L592.079 268.186C592.839 267.934 593.659 268.345 593.91 269.105L597.488 279.888Z" fill="#292843"/>
<path d="M591.471 290.576L596.339 305.248C599.417 304.94 604.295 303.94 609.603 300.887L604.733 286.215C599.427 289.268 594.549 290.27 591.471 290.576Z" fill="#E32A2F"/>
<path d="M617.31 276.621L616.021 275.549C615.351 274.991 614.489 274.723 613.619 274.803L613.607 274.805L613.351 272.023C613.287 271.331 612.675 270.823 611.985 270.886L609.159 271.146C608.467 271.21 607.958 271.822 608.022 272.513L608.278 275.294L608.265 275.295C607.397 275.375 606.597 275.797 606.039 276.466L604.967 277.755C604.41 278.425 604.142 279.289 604.222 280.157L607.171 312.259C607.338 314.065 608.937 315.395 610.743 315.23L618.459 314.521C620.267 314.354 621.597 312.755 621.431 310.949L618.481 278.846C618.401 277.979 617.981 277.178 617.31 276.621Z" fill="#EBEFF2"/>
<path d="M620.401 299.744L606.142 301.054L604.765 286.075L619.025 284.764L620.401 299.744Z" fill="#144658"/>
<path d="M586.546 281.399L597.608 288.079C597.608 288.079 596.287 296.769 596.128 296.721C595.968 296.673 584.21 287.465 584.136 287.315C584.066 287.166 586.546 281.399 586.546 281.399Z" fill="#D7DEE2"/>
<path d="M566.737 273.884C566.737 273.884 579.497 270.97 587.935 271.54C587.935 271.54 588.582 287.882 590.923 290.591C593.265 293.3 605.905 299.228 605.905 299.228L605.762 304.368C605.762 304.368 595.262 300.451 584.875 291.895C574.487 283.338 566.737 273.884 566.737 273.884Z" fill="#EBEFF2"/>
<path d="M619.216 277.727C619.309 272.485 615.12 268.144 609.879 268.051C604.636 267.957 600.296 272.145 600.201 277.388L599.984 289.593L618.999 289.932L619.216 277.727ZM595.657 277.307C595.796 269.559 602.212 263.368 609.96 263.505C617.708 263.644 623.899 270.06 623.76 277.808L623.463 294.559L595.357 294.057L595.657 277.307Z" fill="#FCD7B6"/>
<path d="M609.233 288.801L638.19 289.317L634.012 358.465L608 358.001L581.988 357.538L580.276 288.285L609.233 288.801Z" fill="#FCD7B6"/>
<path d="M608.733 335.365L608.588 329.197L598.556 329.434C598.253 329.441 597.954 329.299 597.796 329.041C597.782 329.019 597.769 328.997 597.758 328.974L601.309 335.541L608.733 335.365Z" fill="white"/>
<path d="M602.133 320.977L595.725 321.127L597.687 322.369L596.507 324.449C596.507 324.449 595.382 327.502 598.482 328.761L601.581 328.689L603.347 325.471L605.271 326.429L602.133 320.977Z" fill="white"/>
<path d="M605.569 321.44L599.906 318.438L602.588 313.561C602.588 313.561 604.561 310.878 607.43 313.148L608.82 315.312L605.569 321.44Z" fill="white"/>
<path d="M606.741 311.876L614.615 311.689L616.766 315.193L618.746 314.098L615.885 319.828L609.537 319.908L611.354 318.637L607.841 312.768C607.841 312.768 607.637 312.389 606.741 311.876Z" fill="white"/>
<path d="M613.777 322.499L619.197 319.26L622.329 324.195C622.329 324.195 623.589 326.816 620.628 328.239L617.355 328.316L613.777 322.499Z" fill="white"/>
<path d="M613.263 326.72L613.311 328.785L620.34 328.62C620.34 328.62 620.902 328.652 621.246 328.307L618.076 334.405C618.076 334.405 617.847 334.969 617.012 335.169L613.539 335.251L613.591 337.463L609.976 332.172L613.263 326.72Z" fill="white"/>
<path d="M470.928 315.647C463.845 314.042 459.157 322.189 457.498 325.686C457.081 326.566 456.769 327.487 456.554 328.438L447.468 368.514C447.246 369.491 447.617 370.503 448.42 371.101C449.973 372.258 452.948 374.055 457.456 375.077C461.962 376.099 465.421 375.759 467.321 375.386C468.304 375.193 469.073 374.441 469.294 373.462L478.381 333.386C478.596 332.435 478.712 331.47 478.714 330.497C478.726 326.625 478.01 317.253 470.928 315.647Z" fill="#EBEFF2"/>
<path d="M473.34 320.208L466.784 318.722L471.005 300.108C471.181 299.328 471.957 298.84 472.736 299.016L476.468 299.862C477.248 300.039 477.737 300.815 477.56 301.595L473.34 320.208Z" fill="#EBEFF2"/>
<path d="M456.225 329.89L450.746 354.058C455.222 356.186 462.746 358.857 472.558 359.065L478.038 334.895C468.225 334.689 460.701 332.018 456.225 329.89Z" fill="#2666A5"/>
<path d="M118.285 246.215L99.5893 242.727C94.2186 269.376 96.5053 292.016 100.465 308.6L115.615 303.274C111.803 273.41 118.285 246.215 118.285 246.215Z" fill="#EC9B66"/>
<path d="M190.805 335.255L159.438 338.038C159.457 348.398 158.732 360.007 159.292 374.541C160.453 404.717 160.698 452.279 161.688 482.585C162.353 502.966 161.822 522.114 161.129 533.438L176.588 533.238C181.5 492.655 191.932 379.467 190.805 335.255Z" fill="#003C61"/>
<path d="M103.103 531.942L117.125 531.94C117.125 531.94 168.18 338.89 165.621 338.887L126.548 338.084C126.539 343.995 103.103 531.942 103.103 531.942Z" fill="#003C61"/>
<path d="M196.027 335.977L154.569 338.702C154.569 338.762 154.571 338.827 154.571 338.887L168.715 339.291C169.605 339.293 166.899 360.542 159.08 389.291C159.613 401.877 155.872 511.101 156.464 524.305C156.464 524.305 164.712 529.433 182.716 524.305C186.304 488.755 196.583 357.799 196.027 335.977Z" fill="#003C61"/>
<path d="M190.805 335.255C190.805 321.226 175.932 320.67 157.584 320.67C139.237 320.67 124.364 321.226 124.364 335.255C124.364 336.599 124.541 337.907 124.804 339.194C124.084 346.915 103.634 483.129 98.0664 524.305C101.952 525.331 118.286 525.431 122.554 524.305C124.404 517.661 149.013 426.669 150.854 419.986C152.661 413.43 157.121 397.274 158.781 391.171C161.866 379.825 164.917 369.71 167.07 361.393C182.316 359.086 190.805 347.59 190.805 335.255Z" fill="#003C61"/>
<path d="M125.839 548.858H93.4736L93.4963 545.669H125.862L125.839 548.858Z" fill="#022E44"/>
<path d="M208.345 548.671H156.091C155.671 548.671 155.355 548.288 155.433 547.876L155.891 545.496H209.273L209.312 547.687C209.321 548.227 208.887 548.671 208.345 548.671Z" fill="#022E44"/>
<path d="M97.1484 533.275C94.9577 534.887 93.5124 537.508 93.503 540.487L93.4844 545.983H125.851L125.87 540.487C125.882 536.736 123.626 533.543 120.438 532.239L122.728 524.304H98.067C97.6257 528.91 97.255 532.658 97.1484 533.275Z" fill="#022E44"/>
<path d="M195.97 537.419L195.124 537.283C186.318 536.513 183.471 530.854 182.716 524.305H156.464L156.528 530.797C156.534 531.199 156.526 531.603 156.504 532.003L155.784 546.051L209.206 546.233C210.088 538.042 203.303 537.419 195.97 537.419Z" fill="#022E44"/>
<path d="M285.488 231.205C285.46 229.566 285.664 227.326 285.781 225.01C286.161 217.515 281.744 218.722 281.744 218.722L280.322 227.365L279.118 233.887C277.032 238.443 276.06 251.525 276.06 251.525L282.009 254.199L287.108 251.546C287.329 251.497 287.553 251.479 287.765 251.377L296.67 246.569L296.676 246.566L308.653 240.099C310.14 239.377 311.345 238.399 310.621 236.913L310.488 236.641C309.765 235.153 308.297 235.59 306.81 236.313L301.48 238.607L311.276 233.318C312.764 232.594 313.968 231.618 313.245 230.131L313.112 229.858C312.389 228.371 310.921 228.807 309.434 229.531L308.378 229.985L313.624 226.781C315.07 225.979 316.22 224.938 315.418 223.493L315.272 223.227C314.47 221.782 313.028 222.295 311.581 223.097L304.098 226.803L309.029 223.035C310.384 222.087 311.42 220.933 310.472 219.578L310.298 219.33C309.35 217.975 307.969 218.637 306.614 219.583L288.952 230.757C287.765 231.042 286.593 231.145 285.488 231.205Z" fill="#EC9B66"/>
<path d="M217.283 229.093C219.653 232.299 245.017 260.676 245.017 260.676C251.881 257.392 278.112 239.601 278.112 239.601C284.244 242.577 287.765 251.376 287.765 251.376C287.765 251.376 274.112 264.596 263.503 271.955C258.621 275.339 253.567 278.504 249.213 280.529C235.396 286.954 205.132 244.833 205.132 244.833L217.283 229.093Z" fill="#EC9B66"/>
<path d="M198.031 209.573L200.827 206.188C195.484 200.513 188.79 195.742 180.386 192.785V192.786C177.47 191.67 174.207 190.978 174.207 190.978L164.698 203.342L166.968 206.626C166.25 206.884 165.495 207.101 164.688 207.253C164.492 207.29 164.27 207.308 164.062 207.336C157.04 208.293 143.776 204.37 141.855 197.168C141.058 194.176 141.036 191.534 141.291 189.436C139.552 190.553 137.727 191.701 135.875 192.86L135.835 192.785C127.28 195.796 120.492 200.681 115.104 206.489L120.092 258.358L123.684 312.06V332.129C131.336 335.049 146.778 339.813 164.062 338.964C166.975 338.821 169.936 338.537 172.927 338.038C184.923 336.036 191.736 332.313 196.908 325.792C195.622 307.033 199.17 268.748 198.666 243.764L203.108 224.013L198.031 209.573Z" fill="#615DF9"/>
<path d="M177.834 168.895C178.027 168.053 178.157 167.273 178.237 166.666C178.311 166.107 177.747 165.683 177.231 165.914C176.285 166.337 174.825 166.945 173.146 167.486C170.935 168.199 166.121 168.111 163.85 168.023C163.29 168.002 162.917 168.595 163.187 169.087C163.535 169.722 164.045 170.562 164.689 171.435C166.967 171.282 171.098 170.946 173.263 170.426C174.637 170.095 176.351 169.478 177.834 168.895Z" fill="white"/>
<path d="M170.787 173.231C169.239 172.99 167.469 173.274 166.486 173.481C168.069 174.998 170.082 176.179 172.461 175.941C172.99 175.889 173.457 175.714 173.898 175.493C173.081 174.49 171.959 173.414 170.787 173.231Z" fill="white"/>
<path d="M177.834 168.895C176.351 169.478 174.636 170.095 173.263 170.426C171.098 170.946 166.967 171.282 164.688 171.435C165.199 172.126 165.807 172.831 166.486 173.481C167.468 173.274 169.239 172.99 170.787 173.231C171.959 173.414 173.08 174.49 173.896 175.493C176.13 174.37 177.272 171.358 177.834 168.895Z" fill="white"/>
<path d="M114.195 207.493C114.542 207.21 114.902 206.925 115.263 206.641V206.636L114.195 207.493Z" fill="#2666A5"/>
<path d="M135.835 192.785C135.835 192.785 128.547 217.439 162.863 217.439C197.182 217.439 182.194 193.46 182.194 193.46L174.941 191.175L143.094 188.251L135.835 192.785Z" fill="#615DF9"/>
<path d="M141.856 197.167C143.833 204.583 157.858 208.538 164.689 207.253C171.521 205.969 175.277 200.629 175.08 195.289C175.033 194.021 174.692 192.523 174.208 190.978C171.374 189.438 168.636 187.851 166.118 186.166C163.438 184.369 156.924 182.925 156.025 183.362C155.109 182.959 148.022 184.73 145.414 186.63C144.096 187.59 142.712 188.522 141.292 189.435C141.037 191.534 141.058 194.175 141.856 197.167Z" fill="#EC9B66"/>
<path d="M141.291 189.436C141.291 189.436 135.172 206.126 158.848 210.673C182.524 215.22 178.835 192.214 178.835 192.214L174.207 190.978L153.831 193.66L141.291 189.436Z" fill="#EC9B66"/>
<path d="M147.628 192.989C148.41 200.934 170.144 206.425 169.552 193.625L167.326 168.081L146.836 166.994C148.579 178.041 149.106 187.406 147.628 192.989Z" fill="#EC9B66"/>
<path d="M170.794 184.121C170.794 184.121 173.646 160.317 171.269 153.527L167.114 125.537C164.738 118.748 159 112.816 152.521 113.923L136.628 116.64C130.15 117.747 125.496 125.915 127.873 132.704L143.266 172.136C145.642 178.927 154.117 186.816 170.794 184.121Z" fill="#E07B4D"/>
<path d="M171.01 184.103L171.439 184.067C180.794 182.467 185.618 172.083 184.019 162.728L179.521 120.212C179.113 117.819 176.819 116.196 174.427 116.606L142.699 122.028C140.307 122.436 135.758 125.248 136.166 127.642L144.741 164.088C146.942 176.97 158.129 186.304 171.01 184.103Z" fill="#EC9B66"/>
<path d="M178.844 146.519C179.406 148.926 178.639 151.16 177.132 151.511C175.626 151.863 173.951 150.196 173.39 147.791C172.828 145.384 173.595 143.15 175.1 142.798C176.607 142.447 178.283 144.112 178.844 146.519Z" fill="#151544"/>
<path d="M157.294 151.128C157.975 153.502 157.322 155.773 155.835 156.2C154.349 156.626 152.591 155.046 151.91 152.672C151.229 150.297 151.882 148.026 153.369 147.6C154.855 147.173 156.613 148.753 157.294 151.128Z" fill="#151544"/>
<path d="M177.759 137.349C175.49 137.208 173.362 137.35 171.176 137.808C170.26 138 169.38 137.348 169.272 136.417V136.414C169.182 135.636 169.659 134.88 170.415 134.678C172.956 134.001 175.512 133.82 178.084 134.148C178.864 134.248 179.436 134.942 179.443 135.73C179.451 136.653 178.68 137.406 177.759 137.349Z" fill="#3A4151"/>
<path d="M156.282 141.296C153.869 142.069 151.73 143.084 149.66 144.46C148.881 144.978 147.821 144.689 147.378 143.864L147.277 143.674C146.906 142.982 147.074 142.102 147.704 141.634C150.022 139.909 152.561 138.693 155.325 138.001C156.089 137.809 156.877 138.245 157.173 138.976L157.252 139.17C157.598 140.025 157.161 141.014 156.282 141.296Z" fill="#3A4151"/>
<path d="M140.131 131.203C140.131 131.203 156.752 131.629 167.825 129.256C173.529 128.035 176.951 126.76 178.928 125.811C180.407 125.101 181.12 123.412 180.633 121.847C179.436 118.003 176.905 110.449 173.935 104.943C172.125 101.588 167.527 101.04 164.924 103.824C161.655 107.32 156.281 111.531 148.649 112.793C134.905 115.068 129.259 115.536 125.04 125.481C120.821 135.427 129.568 147.785 135.237 157.103L139.06 156.081C139.06 156.081 138.845 149.963 140.131 131.203" fill="#3A4151"/>
<path d="M132.25 164.608C135.182 168.713 139.677 170.528 142.29 168.661C142.547 168.477 142.778 168.264 142.979 168.025C144.826 165.845 144.357 161.546 141.714 157.845C138.783 153.74 134.289 151.925 131.674 153.793C129.061 155.66 129.319 160.502 132.25 164.608Z" fill="#E07B4D"/>
<path d="M168.129 161.231C168.439 161.157 171.181 160.455 172.123 158.835C172.457 158.262 172.536 157.626 172.353 156.995C171.744 154.893 169.099 154.607 167.896 154.589L165.841 148.513L164.417 148.995L166.835 156.143L167.416 156.101C167.447 156.099 170.48 155.923 170.909 157.413C170.979 157.653 170.953 157.858 170.824 158.079C170.296 158.987 168.4 159.619 167.776 159.769L168.129 161.231Z" fill="#E07B4D"/>
<path d="M126.759 366.151C125.256 366.151 124.297 365.999 124.259 365.992C123.511 365.866 123.008 365.158 123.136 364.41C123.263 363.666 123.971 363.174 124.716 363.287C125.297 363.386 138.971 365.479 143.005 350.832C143.205 350.102 143.961 349.675 144.692 349.874C145.421 350.074 145.851 350.831 145.649 351.56C142.063 364.58 131.595 366.151 126.759 366.151Z" fill="#022E44"/>
<path d="M190.925 368.125C186.089 368.125 175.622 366.555 172.036 353.535C171.834 352.804 172.262 352.048 172.993 351.848C173.724 351.645 174.48 352.076 174.68 352.805C178.714 367.451 192.39 365.357 192.969 365.261C193.724 365.144 194.422 365.641 194.548 366.385C194.674 367.132 194.173 367.84 193.426 367.965C193.388 367.972 192.428 368.125 190.925 368.125Z" fill="#022E44"/>
<path d="M161.002 214.432L165.405 209.041L159.363 206.964H155.427L161.002 214.432Z" fill="#EC9B66"/>
<path d="M161.002 214.432L143.534 187.95C143.534 187.95 135.958 191.184 130.423 195.045L137.229 205.161L146.095 205.417L148.433 209.806L161.002 214.432Z" fill="#3636F2"/>
<path d="M161.002 214.432L179.218 192.126C179.218 192.126 186.019 194.362 190.442 197.616L184.257 206.622L177.171 206.838L175.305 210.536L161.002 214.432Z" fill="#3636F2"/>
<path d="M172.927 338.038C152.198 341.498 132.627 335.542 123.685 332.13L124.67 340.506C124.67 340.506 176.546 360.043 196.043 336.863C196.499 331.612 196.771 329.843 196.909 325.791C191.737 332.314 184.925 336.035 172.927 338.038Z" fill="#615DF9"/>
<path d="M116.212 205.328C96.6642 226.404 94.5869 260.442 94.5869 260.442C107.375 272.411 118.306 269.304 118.306 269.304L120.22 257.995" fill="#615DF9"/>
<path d="M118.946 271.479C118.946 271.479 103.659 272.244 93.2231 261.847L93.8751 257.475C93.8751 257.475 112.046 266.248 119.316 266.873L118.946 271.479Z" fill="#3636F2"/>
<path d="M139.403 141.971C140.62 149.163 143.313 156.109 147.271 162.265C148.217 163.739 149.261 165.195 150.675 166.245C152.087 167.295 153.935 167.899 155.652 167.479C157.645 166.991 159.064 165.28 160.861 164.3C163.813 162.691 167.464 163.184 170.711 162.289C172.759 161.725 174.821 160.595 176.88 161.111C177.865 161.357 178.784 161.976 179.796 161.903C181.441 161.783 182.363 159.961 182.631 158.355C182.899 156.748 181.908 154.312 182.999 153.091L183.237 153.267C184.492 154.631 185.637 157.08 185.736 158.92C185.836 160.76 185.587 162.6 185.569 164.441C185.551 166.677 185.872 168.905 185.863 171.141C185.855 173.377 185.485 175.693 184.224 177.551C183.427 178.725 182.317 179.655 181.373 180.72C178.968 183.435 177.492 187.161 174.233 188.791C173.824 188.995 173.389 189.161 172.935 189.216C171.36 189.405 169.959 188.261 168.409 187.927C166.732 187.564 164.983 188.169 163.276 187.981C161.783 187.816 160.429 187.057 158.981 186.664C157.477 186.255 155.885 186.244 154.376 185.857C149.952 184.721 147.037 180.667 144.613 176.843C143.617 175.273 142.625 173.663 142.167 171.867C141.871 170.7 141.808 169.489 141.748 168.288C141.581 164.968 141.416 161.629 140.717 158.377C140.019 155.124 137.483 151.789 135.337 149.225" fill="#3A4151"/>
<path d="M166.429 169.071C168.54 168.886 170.957 168.618 172.449 168.259C170.957 168.618 168.54 168.887 166.429 169.071ZM176.429 163.735C175.481 164.158 174.016 164.767 172.333 165.311C170.116 166.027 165.288 165.939 163.01 165.85C162.448 165.827 162.074 166.424 162.345 166.918C162.696 167.554 163.206 168.396 163.852 169.271C164.364 169.964 164.973 170.671 165.653 171.323C167.241 172.844 169.26 174.03 171.645 173.79C172.176 173.736 172.644 173.563 173.085 173.34C175.324 172.215 176.47 169.194 177.033 166.724C177.226 165.879 177.356 165.098 177.437 164.49C177.512 163.928 176.946 163.503 176.429 163.735Z" fill="white"/>
<path d="M230.314 244.304C230.314 244.304 218.127 213.017 192.442 199.729L190.927 203.849L184.763 224.965L206.329 253.844L210.881 260.536C210.881 260.536 222.222 259.837 230.314 244.304" fill="#615DF9"/>
<path d="M210.221 263.286C210.221 263.286 225.053 256.305 232.416 243.927L230.371 240.011C230.371 240.011 214.772 256.141 208.356 259.061L210.221 263.286Z" fill="#3636F2"/>
<path d="M133.308 369.016C133.174 362.502 127.764 357.313 121.251 357.448C114.738 357.582 109.548 362.99 109.683 369.504L109.996 384.67L133.622 384.182L133.308 369.016ZM104.035 369.621C103.836 359.993 111.507 352 121.134 351.801C130.76 351.601 138.756 359.272 138.955 368.898L139.386 389.712L104.466 390.433L104.035 369.621Z" fill="#E5BA93"/>
<path d="M95.4672 470.109L89.6792 465.551L95.3712 465.433L95.4672 470.109Z" fill="#E5BA93"/>
<path d="M120.223 378.9L156.201 378.156L154.32 464.216L122 464.884L89.6788 465.551L84.2441 379.644L120.223 378.9Z" fill="#E5BA93"/>
<path d="M159.939 365.927L158.567 364.094C157.855 363.141 156.792 362.51 155.615 362.339L155.596 362.337L156.141 358.561C156.277 357.622 155.627 356.751 154.688 356.617L150.851 356.062C149.912 355.926 149.041 356.577 148.907 357.514L148.36 361.291L148.343 361.289C147.164 361.119 145.967 361.423 145.013 362.137L143.18 363.509C142.227 364.221 141.595 365.283 141.425 366.461L135.131 410.049C134.776 412.502 136.477 414.777 138.931 415.131L149.408 416.645C151.861 416.999 154.137 415.297 154.492 412.845L160.785 369.257C160.956 368.078 160.651 366.882 159.939 365.927Z" fill="#EBEFF2"/>
<path d="M156.688 397.632L137.327 394.836L140.265 374.496L159.625 377.293L156.688 397.632Z" fill="#F8665F"/>
<path d="M129.894 367.288L127.978 366.035C126.98 365.381 125.767 365.152 124.602 365.397L124.584 365.4L123.803 361.665C123.608 360.737 122.699 360.143 121.771 360.336L117.976 361.131C117.047 361.324 116.452 362.235 116.647 363.161L117.428 366.897L117.41 366.901C116.246 367.145 115.224 367.841 114.572 368.837L113.319 370.755C112.668 371.751 112.439 372.964 112.683 374.129L121.699 417.236C122.206 419.661 124.584 421.217 127.01 420.709L137.371 418.543C139.798 418.036 141.354 415.657 140.846 413.231L131.83 370.124C131.587 368.96 130.89 367.939 129.894 367.288Z" fill="#EBEFF2"/>
<path d="M137.699 398.186L118.552 402.192L114.344 382.077L133.492 378.072L137.699 398.186Z" fill="#F8665F"/>
<path d="M108.421 367.733L106.627 366.311C105.695 365.571 104.505 365.232 103.323 365.369L103.305 365.372L102.867 361.581C102.757 360.64 101.905 359.964 100.964 360.073L97.1119 360.519C96.1706 360.628 95.4946 361.48 95.6039 362.421L96.0426 366.212L96.0252 366.213C94.8412 366.351 93.7626 366.952 93.0226 367.884L91.6012 369.68C90.8612 370.612 90.5239 371.801 90.6599 372.984L95.7226 416.731C96.0079 419.193 98.2346 420.957 100.697 420.672L111.213 419.456C113.675 419.171 115.44 416.943 115.155 414.483L110.092 370.735C109.955 369.551 109.355 368.472 108.421 367.733Z" fill="#EBEFF2"/>
<path d="M113.388 399.212L93.9559 401.462L91.5933 381.048L111.025 378.799L113.388 399.212Z" fill="#F8665F"/>
<path d="M137.565 370.712C137.43 364.2 132.022 359.011 125.509 359.144C118.996 359.279 113.805 364.687 113.94 371.2L114.253 386.367L137.878 385.879L137.565 370.712ZM108.293 371.318C108.093 361.69 115.765 353.696 125.393 353.498C135.02 353.298 143.013 360.968 143.212 370.596L143.642 391.408L108.724 392.13L108.293 371.318Z" fill="#FCD7B6"/>
<path d="M126.011 383.458L161.99 382.714L160.108 468.773L127.788 469.441L95.4669 470.109L90.0322 384.202L126.011 383.458Z" fill="#FCD7B6"/>
<path d="M126.765 438.789L126.653 431.701L115.123 431.884C114.774 431.889 114.433 431.724 114.253 431.425C114.238 431.4 114.223 431.375 114.21 431.348L118.231 438.925L126.765 438.789Z" fill="white"/>
<path d="M119.308 422.198L111.945 422.315L114.188 423.759L112.815 426.138C112.815 426.138 111.493 429.635 115.044 431.111L118.605 431.054L120.664 427.374L122.867 428.491L119.308 422.198Z" fill="white"/>
<path d="M123.252 422.76L116.772 419.26L119.896 413.68C119.896 413.68 122.188 410.616 125.464 413.248L127.041 415.747L123.252 422.76Z" fill="white"/>
<path d="M124.684 411.781L133.733 411.639L136.172 415.684L138.459 414.443L135.121 421L127.824 421.035L129.924 419.591L125.939 412.816C125.939 412.816 125.708 412.379 124.684 411.781Z" fill="white"/>
<path d="M132.674 424.051L138.931 420.378L142.486 426.075C142.486 426.075 143.911 429.098 140.495 430.707L136.732 430.766L132.674 424.051Z" fill="white"/>
<path d="M132.046 428.896L132.083 431.269L140.16 431.143C140.16 431.143 140.807 431.184 141.206 430.789L137.51 437.769C137.51 437.769 137.239 438.416 136.279 438.639L132.287 438.701L132.327 441.243L128.222 435.132L132.046 428.896Z" fill="white"/>
<path d="M133.511 342.425L128.343 338.939C127.538 338.065 126.258 337.049 124.788 336.015C119.784 325.549 117.012 314.233 115.614 303.274L100.466 308.601C103.795 322.539 108.307 332.205 110.462 336.334L110.792 339.077C110.764 339.283 110.707 339.481 110.728 339.699L112 349.091L112.002 349.097L113.711 361.73C113.856 363.267 114.307 364.661 115.8 364.606L116.074 364.597C117.567 364.542 117.662 363.127 117.516 361.59L117.251 356.186L118.651 366.519C118.796 368.058 119.246 369.453 120.739 369.397L121.014 369.389C122.507 369.334 122.6 367.919 122.455 366.381L122.403 365.313L123.47 370.983C123.694 372.517 124.215 373.889 125.699 373.751L125.971 373.727C127.455 373.59 127.474 372.169 127.25 370.635L126.464 362.869L128.111 368.486C128.487 369.998 129.142 371.314 130.594 371.018L130.86 370.965C132.312 370.67 132.187 369.245 131.81 367.734L127.895 348.489C128.027 347.37 128.311 346.335 128.61 345.371C130.012 345.966 131.854 346.985 133.787 347.957C140.042 351.109 140.414 346.895 140.414 346.895L133.511 342.425Z" fill="#EC9B66"/>
<path d="M202.841 560.412C202.841 556.234 206.228 552.848 210.404 552.848C214.581 552.848 217.968 556.234 217.968 560.412C217.968 564.589 214.581 567.976 210.404 567.976C206.228 567.976 202.841 564.589 202.841 560.412Z" fill="#04202B"/>
<path d="M283.107 560.412C283.107 556.234 286.494 552.848 290.67 552.848C294.847 552.848 298.234 556.234 298.234 560.412C298.234 564.589 294.847 567.976 290.67 567.976C286.494 567.976 283.107 564.589 283.107 560.412Z" fill="#04202B"/>
<path d="M295.7 557.953H205.375C192.281 557.953 181.668 547.339 181.668 534.247V356.296H319.408V534.247C319.408 547.339 308.793 557.953 295.7 557.953Z" fill="#0D8C34"/>
<path d="M323.306 368.775H177.769C173.263 368.775 169.61 365.123 169.61 360.616V354.623C169.61 350.116 173.263 346.464 177.769 346.464H323.306C327.813 346.464 331.466 350.116 331.466 354.623V360.616C331.466 365.123 327.813 368.775 323.306 368.775Z" fill="#24B952"/>
<path d="M249.114 486.732L248.848 469.963L221.572 470.395C220.745 470.408 219.94 470.017 219.512 469.309C219.477 469.252 219.444 469.191 219.412 469.127L228.925 487.052L249.114 486.732Z" fill="#92C133"/>
<path d="M231.473 447.479L214.051 447.755L219.358 451.173L216.109 456.802C216.109 456.802 212.983 465.075 221.385 468.565L229.81 468.433L234.679 459.723L239.893 462.369L231.473 447.479Z" fill="#92C133"/>
<path d="M240.803 448.81L225.473 440.53L232.862 427.331C232.862 427.331 238.285 420.078 246.038 426.307L249.769 432.219L240.803 448.81Z" fill="#92C133"/>
<path d="M244.191 422.835L265.602 422.495L271.371 432.065L276.781 429.131L268.885 444.645L251.623 444.729L256.59 441.311L247.162 425.285C247.162 425.285 246.615 424.249 244.191 422.835" fill="#92C133"/>
<path d="M263.095 451.862L277.899 443.171L286.311 456.651C286.311 456.651 289.681 463.803 281.599 467.61L272.699 467.751L263.095 451.862Z" fill="#92C133"/>
<path d="M261.608 463.327L261.697 468.944L280.808 468.64C280.808 468.64 282.336 468.739 283.277 467.807L274.536 484.319C274.536 484.319 273.895 485.85 271.624 486.374L262.18 486.523L262.275 492.535L252.56 478.079L261.608 463.327Z" fill="#92C133"/>
<path d="M249.242 484.233L248.998 468.908L224.072 469.304C223.316 469.316 222.58 468.958 222.19 468.312C222.158 468.26 222.127 468.204 222.098 468.145L230.791 484.526L249.242 484.233Z" fill="white"/>
<path d="M233.119 448.361L217.199 448.613L222.047 451.737L219.079 456.882C219.079 456.882 216.222 464.443 223.901 467.631L231.601 467.51L236.05 459.551L240.814 461.969L233.119 448.361Z" fill="white"/>
<path d="M241.646 449.578L227.636 442.012L234.389 429.948C234.389 429.948 239.344 423.322 246.429 429.013L249.84 434.417L241.646 449.578Z" fill="white"/>
<path d="M244.742 425.84L264.309 425.531L269.582 434.276L274.525 431.592L267.309 445.772L251.534 445.849L256.074 442.725L247.457 428.079C247.457 428.079 246.958 427.132 244.742 425.84" fill="white"/>
<path d="M262.018 452.367L275.547 444.426L283.234 456.743C283.234 456.743 286.314 463.281 278.927 466.758L270.794 466.889L262.018 452.367Z" fill="white"/>
<path d="M260.659 462.844L260.742 467.979L278.206 467.701C278.206 467.701 279.602 467.789 280.463 466.939L272.474 482.029C272.474 482.029 271.888 483.428 269.812 483.907L261.182 484.044L261.27 489.539L252.39 476.327L260.659 462.844Z" fill="white"/>
<path d="M727.587 560.412C727.587 556.234 730.974 552.848 735.151 552.848C739.328 552.848 742.714 556.234 742.714 560.412C742.714 564.589 739.328 567.976 735.151 567.976C730.974 567.976 727.587 564.589 727.587 560.412Z" fill="#04202B"/>
<path d="M807.853 560.412C807.853 556.234 811.239 552.848 815.417 552.848C819.594 552.848 822.981 556.234 822.981 560.412C822.981 564.589 819.594 567.976 815.417 567.976C811.239 567.976 807.853 564.589 807.853 560.412Z" fill="#04202B"/>
<path d="M820.447 557.953H730.121C717.028 557.953 706.413 547.339 706.413 534.247V356.296H844.153V534.247C844.153 547.339 833.54 557.953 820.447 557.953Z" fill="#FFD836"/>
<path d="M848.052 368.775H702.516C698.009 368.775 694.356 365.123 694.356 360.616V354.623C694.356 350.116 698.009 346.464 702.516 346.464H848.052C852.559 346.464 856.211 350.116 856.211 354.623V360.616C856.211 365.123 852.559 368.775 848.052 368.775Z" fill="#EFC514"/>
<path d="M773.861 486.732L773.594 469.963L746.319 470.395C745.491 470.408 744.686 470.017 744.259 469.309C744.223 469.252 744.19 469.191 744.159 469.127L753.671 487.052L773.861 486.732Z" fill="#EFC514"/>
<path d="M756.219 447.479L738.799 447.755L744.104 451.173L740.856 456.802C740.856 456.802 737.729 465.075 746.131 468.565L754.556 468.433L759.425 459.723L764.637 462.369L756.219 447.479Z" fill="#EFC514"/>
<path d="M765.549 448.81L750.219 440.53L757.609 427.331C757.609 427.331 763.031 420.078 770.784 426.307L774.515 432.219L765.549 448.81Z" fill="#EFC514"/>
<path d="M768.938 422.835L790.348 422.495L796.118 432.065L801.527 429.131L793.631 444.645L776.37 444.729L781.336 441.311L771.908 425.285C771.908 425.285 771.362 424.249 768.938 422.835" fill="#EFC514"/>
<path d="M787.841 451.862L802.646 443.171L811.056 456.651C811.056 456.651 814.426 463.803 806.345 467.61L797.444 467.751L787.841 451.862Z" fill="#EFC514"/>
<path d="M786.354 463.327L786.443 468.944L805.553 468.64C805.553 468.64 807.082 468.739 808.025 467.807L799.281 484.319C799.281 484.319 798.641 485.85 796.37 486.374L786.926 486.523L787.022 492.535L777.306 478.079L786.354 463.327Z" fill="#EFC514"/>
<path d="M773.987 484.233L773.743 468.908L748.818 469.304C748.063 469.316 747.326 468.958 746.935 468.312C746.904 468.26 746.872 468.204 746.844 468.145L755.538 484.526L773.987 484.233Z" fill="white"/>
<path d="M757.866 448.361L741.945 448.613L746.794 451.737L743.825 456.882C743.825 456.882 740.967 464.443 748.646 467.631L756.346 467.51L760.797 459.551L765.561 461.969L757.866 448.361Z" fill="white"/>
<path d="M766.392 449.578L752.381 442.012L759.136 429.948C759.136 429.948 764.09 423.322 771.176 429.013L774.586 434.417L766.392 449.578Z" fill="white"/>
<path d="M769.488 425.84L789.055 425.531L794.328 434.276L799.271 431.592L792.055 445.772L776.28 445.849L780.819 442.725L772.203 428.079C772.203 428.079 771.704 427.132 769.488 425.84" fill="white"/>
<path d="M786.764 452.367L800.292 444.426L807.98 456.743C807.98 456.743 811.06 463.281 803.675 466.758L795.54 466.889L786.764 452.367Z" fill="white"/>
<path d="M785.405 462.844L785.488 467.979L802.952 467.701C802.952 467.701 804.348 467.789 805.209 466.939L797.22 482.029C797.22 482.029 796.634 483.428 794.558 483.907L785.929 484.044L786.016 489.539L777.137 476.327L785.405 462.844Z" fill="white"/>
<path d="M552.672 560.412C552.672 556.234 556.059 552.848 560.236 552.848C564.413 552.848 567.799 556.234 567.799 560.412C567.799 564.589 564.413 567.976 560.236 567.976C556.059 567.976 552.672 564.589 552.672 560.412Z" fill="#04202B"/>
<path d="M632.938 560.412C632.938 556.234 636.324 552.848 640.501 552.848C644.679 552.848 648.065 556.234 648.065 560.412C648.065 564.589 644.679 567.976 640.501 567.976C636.324 567.976 632.938 564.589 632.938 560.412Z" fill="#04202B"/>
<path d="M645.531 557.953H555.206C542.112 557.953 531.498 547.339 531.498 534.247V356.296H669.238V534.247C669.238 547.339 658.624 557.953 645.531 557.953Z" fill="#3F96DB"/>
<path d="M673.137 368.775H527.601C523.094 368.775 519.441 365.123 519.441 360.616V354.623C519.441 350.116 523.094 346.464 527.601 346.464H673.137C677.643 346.464 681.295 350.116 681.295 354.623V360.616C681.295 365.123 677.643 368.775 673.137 368.775Z" fill="#2886C6"/>
<path d="M598.945 486.732L598.679 469.963L571.404 470.395C570.576 470.408 569.771 470.017 569.344 469.309C569.308 469.252 569.275 469.191 569.244 469.127L578.756 487.052L598.945 486.732Z" fill="#2886C6"/>
<path d="M581.303 447.479L563.883 447.755L569.189 451.173L565.941 456.802C565.941 456.802 562.814 465.075 571.215 468.565L579.641 468.433L584.51 459.723L589.722 462.369L581.303 447.479Z" fill="#2886C6"/>
<path d="M590.634 448.81L575.303 440.53L582.694 427.331C582.694 427.331 588.115 420.078 595.869 426.307L599.599 432.219L590.634 448.81Z" fill="#2886C6"/>
<path d="M594.022 422.835L615.433 422.495L621.202 432.065L626.611 429.131L618.715 444.645L601.454 444.729L606.421 441.311L596.993 425.285C596.993 425.285 596.446 424.249 594.022 422.835" fill="#2886C6"/>
<path d="M612.926 451.862L627.731 443.171L636.14 456.651C636.14 456.651 639.511 463.803 631.43 467.61L622.528 467.751L612.926 451.862Z" fill="#2886C6"/>
<path d="M611.439 463.327L611.528 468.944L630.637 468.64C630.637 468.64 632.167 468.739 633.109 467.807L624.365 484.319C624.365 484.319 623.725 485.85 621.455 486.374L612.011 486.523L612.107 492.535L602.391 478.079L611.439 463.327Z" fill="#2886C6"/>
<path d="M599.072 484.233L598.828 468.908L573.902 469.304C573.148 469.316 572.41 468.958 572.02 468.312C571.989 468.26 571.957 468.204 571.929 468.145L580.622 484.526L599.072 484.233Z" fill="white"/>
<path d="M582.95 448.361L567.029 448.613L571.878 451.737L568.909 456.882C568.909 456.882 566.052 464.443 573.73 467.631L581.43 467.51L585.881 459.551L590.645 461.969L582.95 448.361Z" fill="white"/>
<path d="M591.476 449.578L577.466 442.012L584.22 429.948C584.22 429.948 589.175 423.322 596.26 429.013L599.671 434.417L591.476 449.578Z" fill="white"/>
<path d="M594.573 425.84L614.139 425.531L619.413 434.276L624.355 431.592L617.139 445.772L601.365 445.849L605.903 442.725L597.287 428.079C597.287 428.079 596.789 427.132 594.573 425.84" fill="white"/>
<path d="M611.849 452.367L625.377 444.426L633.065 456.743C633.065 456.743 636.145 463.281 628.76 466.758L620.625 466.889L611.849 452.367Z" fill="white"/>
<path d="M610.489 462.844L610.572 467.979L628.036 467.701C628.036 467.701 629.432 467.789 630.293 466.939L622.304 482.029C622.304 482.029 621.719 483.428 619.643 483.907L611.013 484.044L611.1 489.539L602.221 476.327L610.489 462.844Z" fill="white"/>
<path d="M377.756 560.412C377.756 556.234 381.143 552.848 385.319 552.848C389.496 552.848 392.883 556.234 392.883 560.412C392.883 564.589 389.496 567.976 385.319 567.976C381.143 567.976 377.756 564.589 377.756 560.412Z" fill="#04202B"/>
<path d="M458.023 560.412C458.023 556.234 461.409 552.848 465.585 552.848C469.763 552.848 473.149 556.234 473.149 560.412C473.149 564.589 469.763 567.976 465.585 567.976C461.409 567.976 458.023 564.589 458.023 560.412Z" fill="#04202B"/>
<path d="M470.615 557.953H380.29C367.196 557.953 356.583 547.339 356.583 534.247V356.296H494.323V534.247C494.323 547.339 483.708 557.953 470.615 557.953Z" fill="#EA3D63"/>
<path d="M498.221 368.775H352.684C348.179 368.775 344.525 365.123 344.525 360.616V354.623C344.525 350.116 348.179 346.464 352.684 346.464H498.221C502.728 346.464 506.38 350.116 506.38 354.623V360.616C506.38 365.123 502.728 368.775 498.221 368.775Z" fill="#ED144C"/>
<path d="M424.03 486.732L423.763 469.963L396.487 470.395C395.66 470.408 394.855 470.017 394.427 469.309C394.392 469.252 394.359 469.191 394.327 469.127L403.84 487.052L424.03 486.732Z" fill="#ED144C"/>
<path d="M406.388 447.479L388.967 447.755L394.273 451.173L391.024 456.802C391.024 456.802 387.899 465.075 396.3 468.565L404.725 468.433L409.595 459.723L414.808 462.369L406.388 447.479Z" fill="#ED144C"/>
<path d="M415.719 448.81L400.388 440.53L407.778 427.331C407.778 427.331 413.2 420.078 420.954 426.307L424.684 432.219L415.719 448.81Z" fill="#ED144C"/>
<path d="M419.107 422.835L440.518 422.495L446.287 432.065L451.696 429.131L443.8 444.645L426.539 444.729L431.506 441.311L422.078 425.285C422.078 425.285 421.531 424.249 419.107 422.835" fill="#ED144C"/>
<path d="M438.01 451.862L452.814 443.171L461.226 456.651C461.226 456.651 464.596 463.803 456.514 467.61L447.614 467.751L438.01 451.862Z" fill="#ED144C"/>
<path d="M436.524 463.327L436.613 468.944L455.724 468.64C455.724 468.64 457.252 468.739 458.193 467.807L449.452 484.319C449.452 484.319 448.81 485.85 446.54 486.374L437.096 486.523L437.19 492.535L427.476 478.079L436.524 463.327Z" fill="#ED144C"/>
<path d="M424.157 484.233L423.913 468.908L398.987 469.304C398.231 469.316 397.495 468.958 397.105 468.312C397.073 468.26 397.042 468.204 397.013 468.145L405.706 484.526L424.157 484.233Z" fill="white"/>
<path d="M408.034 448.361L392.114 448.613L396.962 451.737L393.994 456.882C393.994 456.882 391.137 464.443 398.816 467.631L406.516 467.51L410.965 459.551L415.729 461.969L408.034 448.361Z" fill="white"/>
<path d="M416.562 449.578L402.551 442.012L409.305 429.948C409.305 429.948 414.259 423.322 421.345 429.013L424.755 434.417L416.562 449.578Z" fill="white"/>
<path d="M419.658 425.84L439.224 425.531L444.498 434.276L449.44 431.592L442.224 445.772L426.45 445.849L430.99 442.725L422.372 428.079C422.372 428.079 421.874 427.132 419.658 425.84" fill="white"/>
<path d="M436.934 452.367L450.463 444.426L458.15 456.743C458.15 456.743 461.23 463.281 453.843 466.758L445.71 466.889L436.934 452.367Z" fill="white"/>
<path d="M435.574 462.844L435.657 467.979L453.121 467.701C453.121 467.701 454.517 467.789 455.378 466.939L447.389 482.029C447.389 482.029 446.803 483.428 444.727 483.907L436.097 484.044L436.185 489.539L427.305 476.327L435.574 462.844Z" fill="white"/>
<path d="M611.405 285.196C610.418 284.455 608.963 283.588 607.501 282.636C602.766 279.553 605.454 277.395 605.454 277.395L611.349 280.351L615.857 282.501C619.555 283.245 627.957 288.437 627.957 288.437L626.957 293.245L623.085 295.18C622.957 295.292 622.847 295.421 622.69 295.504L615.822 298.805L615.819 298.807L606.582 303.247C605.483 303.833 604.355 304.135 603.769 303.036L603.661 302.835C603.075 301.737 603.99 301.035 605.089 300.449L608.845 298.215L601.289 301.847C600.19 302.433 599.062 302.735 598.477 301.637L598.369 301.435C597.782 300.337 598.698 299.635 599.795 299.049L600.539 298.607L596.266 300.387C595.139 300.912 593.995 301.153 593.47 300.027L593.374 299.819C592.846 298.692 593.797 298.039 594.926 297.512L600.493 294.591L596.017 295.929C594.839 296.336 593.678 296.457 593.271 295.28L593.197 295.064C592.79 293.888 593.805 293.339 594.981 292.932L609.599 287.109C610.299 286.512 610.879 285.844 611.405 285.196Z" fill="#F7A17E"/>
<path d="M661.263 261.298C661.74 265.492 661.688 269.008 660.546 270.456C656.764 275.246 620.471 286.534 620.471 286.534L622.72 294.011C622.72 294.011 668.615 292.168 675.518 276.751C677.468 272.395 678.027 266.916 677.826 261.298H661.263Z" fill="#F7A17E"/>
<path d="M302.528 211.542L300.82 210.122C299.932 209.383 298.788 209.029 297.639 209.134L297.62 209.135L297.282 205.45C297.198 204.534 296.388 203.859 295.472 203.943L291.726 204.289C290.811 204.373 290.136 205.182 290.222 206.098L290.559 209.785L290.542 209.786C289.392 209.891 288.332 210.45 287.592 211.337L286.172 213.045C285.435 213.933 285.079 215.077 285.184 216.227L289.094 258.765C289.314 261.159 291.432 262.922 293.827 262.702L304.052 261.762C306.446 261.542 308.208 259.423 307.988 257.029L304.08 214.49C303.974 213.341 303.416 212.281 302.528 211.542Z" fill="#EBEFF2"/>
<path d="M306.623 242.182L287.729 243.918L285.905 224.07L304.799 222.333L306.623 242.182Z" fill="#144658"/>
<path d="M774.837 329.143C773.291 328.871 771.141 328.726 768.931 328.487C761.781 327.718 763.588 323.719 763.588 323.719L771.981 323.677L778.337 323.519C782.965 322.231 795.491 323.282 795.491 323.282L797.127 329.317L793.847 333.743C793.765 333.945 793.716 334.155 793.588 334.339L787.696 342.043L787.692 342.049L779.765 352.41C778.857 353.707 777.751 354.701 776.453 353.791L776.215 353.625C774.917 352.718 775.551 351.393 776.46 350.095L779.435 345.394L772.952 353.871C772.043 355.17 770.936 356.162 769.639 355.253L769.4 355.086C768.103 354.178 768.736 352.854 769.644 351.557L770.235 350.626L766.411 355.107C765.433 356.354 764.276 357.286 763.028 356.31L762.8 356.131C761.552 355.155 762.255 353.866 763.232 352.618L767.868 346.095L763.557 350.193C762.457 351.334 761.208 352.139 760.069 351.039L759.86 350.837C758.72 349.735 759.555 348.527 760.655 347.389L773.892 332.355C774.343 331.275 774.615 330.181 774.837 329.143Z" fill="#FEB4A3"/>
<path d="M440.838 320.588C442.124 320.668 443.868 320.964 445.678 321.199C451.531 321.959 450.858 318.421 450.858 318.421L444.167 316.775L439.126 315.428C435.68 313.511 425.482 311.943 425.482 311.943L423.018 316.444L424.786 320.605C424.811 320.783 424.81 320.959 424.878 321.132L428.099 328.411L428.102 328.416L432.435 338.207C432.911 339.419 433.603 340.421 434.812 339.947L435.035 339.86C436.246 339.384 435.994 338.205 435.518 336.995L434.047 332.672L437.591 340.683C438.067 341.893 438.759 342.897 439.97 342.421L440.192 342.335C441.402 341.86 441.151 340.681 440.675 339.471L440.384 338.615L442.574 342.925C443.114 344.109 443.859 345.076 445.042 344.536L445.259 344.437C446.442 343.897 446.128 342.735 445.588 341.551L443.143 335.455L445.795 339.552C446.454 340.673 447.295 341.557 448.416 340.897L448.622 340.776C449.743 340.117 449.31 338.992 448.65 337.872L440.975 323.332C440.824 322.384 440.816 321.459 440.838 320.588Z" fill="#FFCFC0"/>
</svg>
